<svg xmlns="http://www.w3.org/2000/svg" viewBox="0 0 16 16" fill="none" shape-rendering="crispEdges"><metadata xmlns:rdf="http://www.w3.org/1999/02/22-rdf-syntax-ns#" xmlns:xsi="http://www.w3.org/2001/XMLSchema-instance" xmlns:dc="http://purl.org/dc/elements/1.1/" xmlns:dcterms="http://purl.org/dc/terms/"><rdf:RDF><rdf:Description><dc:title>Pixel Art</dc:title><dc:creator>DiceBear</dc:creator><dc:source xsi:type="dcterms:URI">https://www.figma.com/community/file/1198754108850888330</dc:source><dcterms:license xsi:type="dcterms:URI">https://creativecommons.org/publicdomain/zero/1.0/</dcterms:license><dc:rights>„Pixel Art” (https://www.figma.com/community/file/1198754108850888330) by „DiceBear”, licensed under „CC0 1.0” (https://creativecommons.org/publicdomain/zero/1.0/)</dc:rights></rdf:Description></rdf:RDF></metadata><mask id="viewboxMask"><rect width="16" height="16" rx="0" ry="0" x="0" y="0" fill="#fff" /></mask><g mask="url(#viewboxMask)"><rect fill="#ccfbf1" width="16" height="16" x="0" y="0" /><path d="M4 2h8v1h1v3h1v2h-1v3h-1v1H9v1h4v1h1v2H2v-2h1v-1h4v-1H4v-1H3V8H2V6h1V3h1V2Z" fill="#cb9e6e"/><path d="M4 2h8v1h1v3h1v2h-1v3h-1v1H4v-1H3V8H2V6h1V3h1V2Z" fill="#fff" fill-opacity=".1"/><path d="M7 12h2v1h4v1h1v2H2v-2h1v-1h4v-1Z" fill="#03396c"/><path fill="#000" fill-opacity=".3" d="M7 12h2v1H7z"/><path fill="#fff" d="M12 5H9v3h3zM7 5H4v3h3z"/><path fill="#5b7c8b" d="M12 6h-2v1h2zM7 6H5v1h2z"/><path fill="#fff" fill-opacity=".7" d="M12 6h-1v1h1zM7 6H6v1h1z"/><mask id="beardVariant05-a" style="mask-type:luminance" maskUnits="userSpaceOnUse" x="3" y="6" width="10" height="6"><path opacity=".9" d="M3 6h1v2h1v1h6V8h1V6h1v5h-1v1H4v-1H3V6Z" fill="#603015"/></mask><g mask="url(#beardVariant05-a)"><path fill="#603015" d="M0 0h16v16H0z"/><path fill="#fff" fill-opacity=".3" d="M0 0h16v16H0z"/></g><path d="M6 10v1h1v1h2v-1h1v-1H9V9H7v1H6Z" fill="#e35d6a"/><path d="M7 10v1h2v-1H7Z" fill="#fff"/><path d="M3 2h10v1h1v3h-1V4H3v2H2V3h1V2ZM13 8h1v1h1v2h-1v-1h-1V8ZM15 11h1v1h-1v-1Z" fill="#603015"/></g></svg>