<svg xmlns="http://www.w3.org/2000/svg" viewBox="0 0 14 14" fill="none" shape-rendering="crispEdges"><metadata xmlns:rdf="http://www.w3.org/1999/02/22-rdf-syntax-ns#" xmlns:xsi="http://www.w3.org/2001/XMLSchema-instance" xmlns:dc="http://purl.org/dc/elements/1.1/" xmlns:dcterms="http://purl.org/dc/terms/"><rdf:RDF><rdf:Description><dc:title>Pixel Art Neutral</dc:title><dc:creator>DiceBear</dc:creator><dc:source xsi:type="dcterms:URI">https://www.figma.com/community/file/1198754108850888330</dc:source><dcterms:license xsi:type="dcterms:URI">https://creativecommons.org/publicdomain/zero/1.0/</dcterms:license><dc:rights>„Pixel Art Neutral” (https://www.figma.com/community/file/1198754108850888330) by „DiceBear”, licensed under „CC0 1.0” (https://creativecommons.org/publicdomain/zero/1.0/)</dc:rights></rdf:Description></rdf:RDF></metadata><mask id="viewboxMask"><rect width="14" height="14" rx="0" ry="0" x="0" y="0" fill="#fff" /></mask><g mask="url(#viewboxMask)"><rect fill="#fef3c7" width="14" height="14" x="0" y="0" /><g transform="translate(-1 -2)"><path fill="#fff" d="M4 5h3v3H4zM9 5h3v3H9z"/><path fill="#76778b" d="M10 6h1v1h-1zM5 6h1v1H5z"/></g><g transform="translate(-1 -2)"><path fill-rule="evenodd" clip-rule="evenodd" d="M2 5v1h1v2h1v1h3V8h2v1h3V8h1V6h1V5H9v1H7V5H2Zm5 1v2H4V6h3Zm2 0v2h3V6H9Z" fill="#191919"/><path fill="#fff" fill-opacity=".3" d="M4 6h3v2H4zM9 6h3v2H9z"/><path fill="#fff" fill-opacity=".2" d="M2 5h2v1H2zM12 5h2v1h-2z"/></g><g transform="translate(-1)"><path d="M6 10v1h1v1h2v-1h1v-1H9V9H7v1H6Z" fill="#e35d6a"/><path d="M7 10v1h2v-1H7Z" fill="#fff" fill-opacity=".2"/></g></g></svg>